<?xml version="1.0" standalone="no"?>
<!DOCTYPE svg PUBLIC "-//W3C//DTD SVG 20010904//EN"
 "http://www.w3.org/TR/2001/REC-SVG-20010904/DTD/svg10.dtd">
<svg version="1.0" xmlns="http://www.w3.org/2000/svg"
 width="512.000000pt" height="512.000000pt" viewBox="0 0 512.000000 512.000000"
 preserveAspectRatio="xMidYMid meet">

<g transform="translate(0.000000,512.000000) scale(0.100000,-0.100000)"
fill="#FF4B4B" stroke="none">
<path d="M725 4673 c-122 -44 -205 -119 -258 -231 -25 -54 -32 -83 -35 -153
-5 -108 13 -174 71 -260 148 -221 448 -252 644 -67 48 47 113 151 113 185 0
10 45 13 236 13 202 0 240 2 264 17 58 34 68 116 21 164 l-29 29 -246 0 c-214
0 -246 2 -246 15 0 33 -64 140 -111 186 -27 26 -79 63 -116 81 -59 29 -78 33
-162 35 -73 3 -108 -1 -146 -14z"/>
<path d="M4072 4469 c-460 -54 -882 -318 -1142 -714 -28 -44 -283 -541 -565
-1105 -304 -607 -533 -1054 -563 -1096 -151 -214 -395 -381 -660 -451 -92 -25
-114 -27 -432 -33 -235 -4 -344 -10 -365 -19 -51 -21 -104 -81 -121 -136 -30
-103 13 -203 110 -250 l56 -27 337 5 c364 5 417 11 616 73 117 36 327 141 432
215 116 83 292 258 378 379 53 75 180 320 591 1140 310 618 545 1074 574 1116
137 194 348 349 583 428 138 46 228 56 526 56 324 0 348 4 414 70 105 105 80
268 -52 334 l-53 26 -295 -1 c-163 -1 -329 -5 -369 -10z"/>
<path d="M2293 4358 c-57 -28 -67 -122 -17 -169 l26 -24 258 0 258 0 26 24
c51 48 40 142 -20 170 -33 14 -500 14 -531 -1z"/>
<path d="M4160 1266 c-113 -32 -219 -118 -270 -219 -16 -33 -30 -66 -30 -74 0
-10 -45 -13 -236 -13 -202 0 -240 -2 -264 -17 -58 -34 -68 -116 -21 -164 l29
-29 246 0 c214 0 246 -2 246 -15 0 -21 46 -112 78 -153 40 -52 130 -111 205
-134 224 -68 460 57 532 281 28 85 18 217 -21 301 -17 36 -49 85 -71 110 -102
113 -279 166 -423 126z"/>
<path d="M2310 953 c-81 -31 -90 -157 -14 -192 16 -7 109 -11 264 -11 155 0
248 4 264 11 60 28 71 122 20 170 -25 24 -27 24 -272 26 -136 1 -254 -1 -262
-4z"/>
</g>
</svg>
